<svg xmlns="http://www.w3.org/2000/svg" width="249" height="87" viewBox="0 0 249 87">
<rect x="0" y="0" width="15" height="15" rx="2" fill="#76b900"/>
<rect x="18" y="0" width="15" height="15" rx="2" fill="#76b900"/>
<rect x="36" y="0" width="15" height="15" rx="2" fill="#76b900"/>
<rect x="54" y="0" width="15" height="15" rx="2" fill="#76b900"/>
<rect x="72" y="0" width="15" height="15" rx="2" fill="#76b900"/>
<rect x="90" y="0" width="15" height="15" rx="2" fill="#76b900"/>
<rect x="108" y="0" width="15" height="15" rx="2" fill="#76b900"/>
<rect x="126" y="0" width="15" height="15" rx="2" fill="#76b900"/>
<rect x="144" y="0" width="15" height="15" rx="2" fill="#76b900"/>
<rect x="162" y="0" width="15" height="15" rx="2" fill="#76b900"/>
<rect x="180" y="0" width="15" height="15" rx="2" fill="#76b900"/>
<rect x="198" y="0" width="15" height="15" rx="2" fill="#76b900"/>
<rect x="216" y="0" width="15" height="15" rx="2" fill="#76b900"/>
<rect x="234" y="0" width="15" height="15" rx="2" fill="#76b900"/>
<rect x="0" y="18" width="15" height="15" rx="2" fill="#76b900"/>
<rect x="18" y="18" width="15" height="15" rx="2" fill="#76b900"/>
<rect x="36" y="18" width="15" height="15" rx="2" fill="#76b900"/>
<rect x="54" y="18" width="15" height="15" rx="2" fill="#76b900"/>
<rect x="72" y="18" width="15" height="15" rx="2" fill="#76b900"/>
<rect x="90" y="18" width="15" height="15" rx="2" fill="#76b900"/>
<rect x="108" y="18" width="15" height="15" rx="2" fill="#76b900"/>
<rect x="126" y="18" width="15" height="15" rx="2" fill="#76b900"/>
<rect x="144" y="18" width="15" height="15" rx="2" fill="#76b900"/>
<rect x="162" y="18" width="15" height="15" rx="2" fill="#76b900"/>
<rect x="180" y="18" width="15" height="15" rx="2" fill="#76b900"/>
<rect x="198" y="18" width="15" height="15" rx="2" fill="#76b900"/>
<rect x="216" y="18" width="15" height="15" rx="2" fill="#76b900"/>
<rect x="234" y="18" width="15" height="15" rx="2" fill="#76b900"/>
<rect x="0" y="36" width="15" height="15" rx="2" fill="#76b900"/>
<rect x="18" y="36" width="15" height="15" rx="2" fill="#76b900"/>
<rect x="36" y="36" width="15" height="15" rx="2" fill="#76b900"/>
<rect x="54" y="36" width="15" height="15" rx="2" fill="#76b900"/>
<rect x="72" y="36" width="15" height="15" rx="2" fill="#76b900"/>
<rect x="90" y="36" width="15" height="15" rx="2" fill="#76b900"/>
<rect x="108" y="36" width="15" height="15" rx="2" fill="#76b900"/>
<rect x="126" y="36" width="15" height="15" rx="2" fill="#76b900"/>
<rect x="144" y="36" width="15" height="15" rx="2" fill="#76b900"/>
<rect x="162" y="36" width="15" height="15" rx="2" fill="#76b900"/>
<rect x="180" y="36" width="15" height="15" rx="2" fill="#76b900"/>
<rect x="198" y="36" width="15" height="15" rx="2" fill="#76b900"/>
<rect x="216" y="36" width="15" height="15" rx="2" fill="#76b900"/>
<rect x="234" y="36" width="15" height="15" rx="2" fill="#76b900"/>
<rect x="0" y="54" width="15" height="15" rx="2" fill="#76b900"/>
<rect x="18" y="54" width="15" height="15" rx="2" fill="#76b900"/>
<rect x="36" y="54" width="15" height="15" rx="2" fill="#76b900"/>
<rect x="54" y="54" width="15" height="15" rx="2" fill="#76b900"/>
<rect x="72" y="54" width="15" height="15" rx="2" fill="#76b900"/>
<rect x="90" y="54" width="15" height="15" rx="2" fill="#76b900"/>
<rect x="108" y="54" width="15" height="15" rx="2" fill="#76b900"/>
<rect x="126" y="54" width="15" height="15" rx="2" fill="#76b900"/>
<rect x="144" y="54" width="15" height="15" rx="2" fill="#76b900"/>
<rect x="162" y="54" width="15" height="15" rx="2" fill="#76b900"/>
<rect x="180" y="54" width="15" height="15" rx="2" fill="#76b900"/>
<rect x="198" y="54" width="15" height="15" rx="2" fill="#76b900"/>
<rect x="216" y="54" width="15" height="15" rx="2" fill="#76b900"/>
<rect x="234" y="54" width="15" height="15" rx="2" fill="#76b900"/>
<rect x="0" y="72" width="15" height="15" rx="2" fill="#76b900"/>
<rect x="18" y="72" width="15" height="15" rx="2" fill="#76b900"/>
<rect x="36" y="72" width="15" height="15" rx="2" fill="#76b900"/>
<rect x="54" y="72" width="15" height="15" rx="2" fill="#76b900"/>
<rect x="72" y="72" width="15" height="15" rx="2" fill="#76b900"/>
<rect x="90" y="72" width="15" height="15" rx="2" fill="#76b900"/>
<rect x="108" y="72" width="15" height="15" rx="2" fill="#76b900"/>
<rect x="126" y="72" width="15" height="15" rx="2" fill="#76b900"/>
<rect x="144" y="72" width="15" height="15" rx="2" fill="#76b900"/>
<rect x="162" y="72" width="15" height="15" rx="2" fill="#76b900"/>
<rect x="180" y="72" width="15" height="15" rx="2" fill="#76b900"/>
<rect x="198" y="72" width="15" height="15" rx="2" fill="#76b900"/>
<rect x="216" y="72" width="15" height="15" rx="2" fill="#76b900"/>
<rect x="234" y="72" width="15" height="15" rx="2" fill="#76b900"/>
</svg>
