<svg xmlns="http://www.w3.org/2000/svg" width="221" height="20" viewBox="0 0 221 20">
<rect x="0" y="0" width="13" height="20" rx="2" fill="#5e5e5e"/>
<rect x="16" y="0" width="13" height="20" rx="2" fill="#5e5e5e"/>
<rect x="32" y="0" width="13" height="20" rx="2" fill="#5e5e5e"/>
<rect x="48" y="0" width="13" height="20" rx="2" fill="#5e5e5e"/>
<rect x="64" y="0" width="13" height="20" rx="2" fill="#5e5e5e"/>
<rect x="80" y="0" width="13" height="20" rx="2" fill="#5e5e5e"/>
<rect x="96" y="0" width="13" height="20" rx="2" fill="#5e5e5e"/>
<rect x="112" y="0" width="13" height="20" rx="2" fill="#5e5e5e"/>
<rect x="128" y="0" width="13" height="20" rx="2" fill="#5e5e5e"/>
<rect x="144" y="0" width="13" height="20" rx="2" fill="#5e5e5e"/>
<rect x="160" y="0" width="13" height="20" rx="2" fill="#5e5e5e"/>
<rect x="176" y="0" width="13" height="20" rx="2" fill="#5e5e5e"/>
<rect x="192" y="0" width="13" height="20" rx="2" fill="#5e5e5e"/>
<rect x="208" y="0" width="13" height="20" rx="2" fill="#5e5e5e"/>
</svg>
